<mxfile host="Electron" agent="Mozilla/5.0 (Windows NT 10.0; Win64; x64) AppleWebKit/537.36 (KHTML, like Gecko) draw.io/28.0.6 Chrome/138.0.7204.100 Electron/37.2.3 Safari/537.36" version="28.0.6">
  <diagram name="第 1 页" id="se8uCJSOQ2CO3CuUCCRv">
    <mxGraphModel dx="1011" dy="690" grid="1" gridSize="10" guides="1" tooltips="1" connect="1" arrows="1" fold="1" page="1" pageScale="1" pageWidth="827" pageHeight="1169" math="0" shadow="0">
      <root>
        <mxCell id="0" />
        <mxCell id="1" parent="0" />
        <mxCell id="_IDFsmIoDWqXrK5z5pep-1" value="SNode" style="rounded=1;whiteSpace=wrap;html=1;fontSize=16;sketch=1;curveFitting=1;jiggle=2;fillColor=#dae8fc;strokeColor=#6c8ebf;" vertex="1" parent="1">
          <mxGeometry x="140" y="140" width="270" height="30" as="geometry" />
        </mxCell>
        <mxCell id="_IDFsmIoDWqXrK5z5pep-2" value="next" style="rounded=1;whiteSpace=wrap;html=1;fontSize=16;sketch=1;curveFitting=1;jiggle=2;fillColor=#d5e8d4;strokeColor=#82b366;" vertex="1" parent="1">
          <mxGeometry x="140" y="170" width="110" height="30" as="geometry" />
        </mxCell>
        <mxCell id="_IDFsmIoDWqXrK5z5pep-3" value="下一个节点" style="rounded=1;whiteSpace=wrap;html=1;fontSize=16;sketch=1;curveFitting=1;jiggle=2;fillColor=#d5e8d4;strokeColor=#82b366;" vertex="1" parent="1">
          <mxGeometry x="250" y="170" width="160" height="30" as="geometry" />
        </mxCell>
        <mxCell id="_IDFsmIoDWqXrK5z5pep-4" value="match" style="rounded=1;whiteSpace=wrap;html=1;fontSize=16;sketch=1;curveFitting=1;jiggle=2;fillColor=#f8cecc;strokeColor=#b85450;" vertex="1" parent="1">
          <mxGeometry x="140" y="200" width="110" height="30" as="geometry" />
        </mxCell>
        <mxCell id="_IDFsmIoDWqXrK5z5pep-5" value="匹配的节点" style="rounded=1;whiteSpace=wrap;html=1;fontSize=16;sketch=1;curveFitting=1;jiggle=2;fillColor=#f8cecc;strokeColor=#b85450;" vertex="1" parent="1">
          <mxGeometry x="250" y="200" width="160" height="30" as="geometry" />
        </mxCell>
        <mxCell id="_IDFsmIoDWqXrK5z5pep-6" value="waiter" style="rounded=1;whiteSpace=wrap;html=1;fontSize=16;sketch=1;curveFitting=1;jiggle=2;fillColor=#e1d5e7;strokeColor=#9673a6;" vertex="1" parent="1">
          <mxGeometry x="140" y="230" width="110" height="30" as="geometry" />
        </mxCell>
        <mxCell id="_IDFsmIoDWqXrK5z5pep-7" value="被挂起/唤醒的线程" style="rounded=1;whiteSpace=wrap;html=1;fontSize=16;sketch=1;curveFitting=1;jiggle=2;fillColor=#e1d5e7;strokeColor=#9673a6;" vertex="1" parent="1">
          <mxGeometry x="250" y="230" width="160" height="30" as="geometry" />
        </mxCell>
        <mxCell id="_IDFsmIoDWqXrK5z5pep-8" value="item" style="rounded=1;whiteSpace=wrap;html=1;fontSize=16;sketch=1;curveFitting=1;jiggle=2;fillColor=#fff2cc;strokeColor=#d6b656;" vertex="1" parent="1">
          <mxGeometry x="140" y="260" width="110" height="30" as="geometry" />
        </mxCell>
        <mxCell id="_IDFsmIoDWqXrK5z5pep-9" value="节点持有的数据" style="rounded=1;whiteSpace=wrap;html=1;fontSize=16;sketch=1;curveFitting=1;jiggle=2;fillColor=#fff2cc;strokeColor=#d6b656;" vertex="1" parent="1">
          <mxGeometry x="250" y="260" width="160" height="30" as="geometry" />
        </mxCell>
        <mxCell id="_IDFsmIoDWqXrK5z5pep-10" value="mode" style="rounded=1;whiteSpace=wrap;html=1;fontSize=16;sketch=1;curveFitting=1;jiggle=2;fillColor=#dae8fc;strokeColor=#6c8ebf;" vertex="1" parent="1">
          <mxGeometry x="140" y="290" width="110" height="30" as="geometry" />
        </mxCell>
        <mxCell id="_IDFsmIoDWqXrK5z5pep-11" value="模式" style="rounded=1;whiteSpace=wrap;html=1;fontSize=16;sketch=1;curveFitting=1;jiggle=2;fillColor=#dae8fc;strokeColor=#6c8ebf;" vertex="1" parent="1">
          <mxGeometry x="250" y="290" width="160" height="30" as="geometry" />
        </mxCell>
      </root>
    </mxGraphModel>
  </diagram>
</mxfile>
